<?xml version="1.0" encoding="utf-8"?>
<!-- Generator: Adobe Illustrator 24.0.1, SVG Export Plug-In . SVG Version: 6.00 Build 0)  -->
<svg version="1.1" id="Layer_1" xmlns="http://www.w3.org/2000/svg" xmlns:xlink="http://www.w3.org/1999/xlink" x="0px" y="0px"
	 width="964.17px" height="1024px" viewBox="0 0 964.17 1024" style="enable-background:new 0 0 964.17 1024;" xml:space="preserve"
	>
<style type="text/css">
	.st0{fill:url(#SVGID_1_);}
	.st1{fill:#1A1A1A;}
	.st2{fill:#4D4E4E;}
	.st3{fill:#FFFFFF;}
	.st4{fill:url(#SVGID_2_);}
	.st5{fill:url(#SVGID_3_);}
	.st6{fill:url(#SVGID_4_);}
</style>
<g>
	
		<radialGradient id="SVGID_1_" cx="319.5418" cy="157.1408" r="399.1442" fx="230.8716" fy="67.5986" gradientUnits="userSpaceOnUse">
		<stop  offset="0" style="stop-color:#FFFFFF"/>
		<stop  offset="0.028" style="stop-color:#FCFAF5"/>
		<stop  offset="0.1823" style="stop-color:#EADFC0"/>
		<stop  offset="0.3335" style="stop-color:#DBC995"/>
		<stop  offset="0.4788" style="stop-color:#D0B873"/>
		<stop  offset="0.6164" style="stop-color:#C8AC5B"/>
		<stop  offset="0.7431" style="stop-color:#C3A54C"/>
		<stop  offset="0.8488" style="stop-color:#C1A247"/>
	</radialGradient>
	<path class="st0" d="M956.35,484.72c0,124.25-48.09,237.47-126.63,322.05h-60.85c88.71-78.93,144.61-193.96,144.61-322.05
		c0-237.98-192.91-430.86-430.86-430.86S51.75,246.73,51.75,484.72c0,128.09,55.9,243.13,144.6,322.05H135.5
		C56.95,722.19,8.87,608.96,8.87,484.72c0-261.23,212.51-473.74,473.74-473.74S956.35,223.49,956.35,484.72z"/>
	<path class="st1" d="M913.47,484.72c0,128.09-55.9,243.13-144.61,322.05H196.35c-88.71-78.93-144.6-193.96-144.6-322.05
		c0-237.98,192.91-430.86,430.86-430.86S913.47,246.73,913.47,484.72z"/>
	<g>
		<path class="st3" d="M412.47,310.71c-14.71-16.44-23.73-38.05-23.73-61.79c0-51.21,41.66-92.87,92.88-92.87
			c51.21,0,92.87,41.66,92.87,92.87c0,24.21-9.38,46.21-24.61,62.76c17.2-5.88,35.17-9.58,53.58-10.94
			c6.8-15.93,10.57-33.44,10.57-51.83c0-73.01-59.4-132.41-132.42-132.41S349.2,175.91,349.2,248.92c0,18.34,3.75,35.81,10.52,51.71
			C377.8,301.79,395.48,305.18,412.47,310.71z"/>
		<path class="st3" d="M741.88,393.15c-60.54-60.54-154.68-66.84-222.26-18.89c-7.88,5.5-15.4,11.85-22.44,18.89l-14.61,14.61
			l-14.55-14.61c-7.04-7.04-14.55-13.39-22.44-18.89c-67.53-47.94-161.72-41.65-222.26,18.89c-67.58,67.58-67.58,177.12,0,244.7
			l14.6,14.61l83.3,83.29v-59.9l-67.95-67.95c-50.96-50.96-50.96-133.83,0-184.79c24.66-24.71,57.47-38.26,92.4-38.26
			c6.02,0,11.99,0.42,17.86,1.27v420.67h238.13V386.07c0.01,0,0.02,0,0.03,0c5.82-0.79,11.8-1.22,17.83-1.22
			c34.93,0,67.74,13.55,92.4,38.26c50.96,50.96,50.96,133.83,0,184.79l-67.89,67.89v59.9l97.85-97.85
			C809.46,570.27,809.46,460.73,741.88,393.15z M559.34,764.59H405.88V399.52c8.95,4.65,17.41,10.33,25.16,17.07
			c2.43,2.06,4.76,4.23,7.04,6.51l23.39,23.39v244.75c0,11.69,9.48,21.17,21.17,21.17c11.69,0,21.17-9.48,21.17-21.17v-244.8
			l23.34-23.34c2.28-2.28,4.6-4.45,7.04-6.51c7.76-6.74,16.22-12.41,25.16-17.06V764.59z"/>
	</g>
	<radialGradient id="SVGID_2_" cx="474.9363" cy="1000.1896" r="44.2688" gradientUnits="userSpaceOnUse">
		<stop  offset="0" style="stop-color:#FFFFFF"/>
		<stop  offset="0.0188" style="stop-color:#FCFAF5"/>
		<stop  offset="0.122" style="stop-color:#EADFC0"/>
		<stop  offset="0.2233" style="stop-color:#DBC995"/>
		<stop  offset="0.3206" style="stop-color:#D0B873"/>
		<stop  offset="0.4127" style="stop-color:#C8AC5B"/>
		<stop  offset="0.4976" style="stop-color:#C3A54C"/>
		<stop  offset="0.5684" style="stop-color:#C1A247"/>
	</radialGradient>
	<polygon class="st4" points="435.29,931.05 529.94,931.05 482.62,1013.02 	"/>
	<polygon class="st1" points="601.68,806.77 554.39,888.71 410.84,888.71 363.54,806.77 	"/>
	<polygon class="st3" points="554.39,888.71 529.94,931.05 435.29,931.05 410.84,888.71 	"/>
</g>
</svg>
