<?xml version="1.0" encoding="utf-8"?>
<!-- Generator: Adobe Illustrator 24.0.1, SVG Export Plug-In . SVG Version: 6.00 Build 0)  -->
<!DOCTYPE svg PUBLIC "-//W3C//DTD SVG 1.1//EN" "http://www.w3.org/Graphics/SVG/1.1/DTD/svg11.dtd" [
	<!ENTITY ns_extend "http://ns.adobe.com/Extensibility/1.0/">
	<!ENTITY ns_ai "http://ns.adobe.com/AdobeIllustrator/10.0/">
	<!ENTITY ns_graphs "http://ns.adobe.com/Graphs/1.0/">
	<!ENTITY ns_vars "http://ns.adobe.com/Variables/1.0/">
	<!ENTITY ns_imrep "http://ns.adobe.com/ImageReplacement/1.0/">
	<!ENTITY ns_sfw "http://ns.adobe.com/SaveForWeb/1.0/">
	<!ENTITY ns_custom "http://ns.adobe.com/GenericCustomNamespace/1.0/">
	<!ENTITY ns_adobe_xpath "http://ns.adobe.com/XPath/1.0/">
]>
<svg version="1.1" id="Layer_1" xmlns:x="&ns_extend;" xmlns:i="&ns_ai;" xmlns:graph="&ns_graphs;"
	 xmlns="http://www.w3.org/2000/svg" xmlns:xlink="http://www.w3.org/1999/xlink" x="0px" y="0px" viewBox="0 0 1280 1024"
	 style="enable-background:new 0 0 1280 1024;" xml:space="preserve">
<style type="text/css">
	.st0{fill:#E58120;}
	.st1{fill:#0D72A8;}
	.st2{fill:#2998D0;}
	.st3{fill:#FF2424;}
	.st4{fill:#F46060;}
	.st5{fill:#F94141;}
	.st6{fill:#F2A0A0;}
	.st7{fill:#EFBFBF;}
</style>
<metadata>
	<sfw  xmlns="&ns_sfw;">
		<slices></slices>
		<sliceSourceBounds  bottomLeftOrigin="true" height="937.5" width="1230.9" x="24.5" y="43.3"></sliceSourceBounds>
	</sfw>
</metadata>
<path class="st0" d="M640,657.8c58.5-31,154.3-67.4,286.3-72C893.7,458.1,777.7,363.4,640,363.4s-253.7,94.7-286.3,222.5
	C485.8,590.4,581.5,626.8,640,657.8z"/>
<g>
	<path class="st1" d="M639.9,980.7L616,953.1c-4.1-4.8-105.4-118.4-297-116.3c-20.6,0.2-39.7,1.7-60,3.2
		c-61.8,4.6-125.8,9.4-234.5-19.1l16.1-61.3c98.4,25.8,154.4,21.6,213.7,17.2c20.4-1.5,41.5-3.1,64.1-3.3
		C486,771.8,594.6,848,640,888.1c45.4-40.1,154-116.4,321.6-114.7c22.6,0.2,43.7,1.8,64.1,3.3c59.3,4.4,115.2,8.6,213.7-17.2
		l16.1,61.3c-108.7,28.5-172.6,23.7-234.5,19.1c-20.3-1.5-39.4-3-60-3.2c-191.6-2-292.8,111.6-297,116.4L639.9,980.7z"/>
</g>
<path class="st2" d="M639.9,810.6l-20.1-16.3c-0.9-0.8-106.3-84.1-300.9-82.1c-21.6,0.2-39.9,1.8-57.5,3.4
	c-50.6,4.5-98.4,8.7-205.2-19.3l16.1-61.3c96.1,25.2,136.7,21.6,183.6,17.5c18.9-1.7,38.4-3.4,62.5-3.6
	c170.1-1.8,279.1,55,321.6,82.3c42.6-27.3,151.7-84.1,321.6-82.3c24.1,0.2,43.6,2,62.5,3.6c47,4.1,87.5,7.7,183.6-17.5l16.1,61.3
	c-106.8,27.9-154.6,23.7-205.2,19.3c-17.6-1.6-35.9-3.2-57.5-3.4c-194.5-2-299.9,81.4-301,82.2L639.9,810.6z"/>
<path class="st3" d="M627.6,115.4l12,5.4l12.6-5.4c0.5-0.2,49.6-20,165.1-29.1c11.8-0.9,23.7-1.3,35.7-1.2
	c-55.6-23.5-115.8-38-178.9-41.9c-15.2,3.6-26.5,6.9-34.1,9.3c-7.6-2.5-18.9-5.8-34.1-9.3C542.8,47.1,482.5,61.7,427,85.1
	c12,0,23.9,0.3,35.7,1.2C578.2,95.5,627.3,115.3,627.6,115.4z"/>
<path class="st4" d="M959,270.1c-32.1-2.3-65.2-4.7-102.9-0.9c-88.7,8.9-151.9,22.4-188.7,31.9c48.3,3.7,94.3,17,135.9,38.2
	c18.2-2.6,37.9-5,59.1-7.1c32.2-3.2,61.3-1.1,92,1.1c44.4,3.2,99.2,6.4,166.5-5.9c-11.1-20.3-23.5-39.9-37.1-58.5
	C1035,275.5,996.5,272.8,959,270.1z"/>
<path class="st5" d="M348.7,207.7c33.6-1.8,65.3-3.5,95-1.1c116.4,9.2,183.4,36.8,184,37l12.3,5.2l12.3-5.1
	c0.7-0.3,67.6-27.8,184-37.1c29.7-2.3,61.5-0.7,95,1.1c33.3,1.8,67.4,3.6,102.9,1.8c-22.6-23.4-47.2-44.7-73.6-63.8
	c-8.7-0.4-17.3-0.9-25.9-1.3c-35.7-1.9-69.4-3.7-103.4-1c-99.1,7.9-165.3,28-191.3,37.2c-26.1-9.2-92.3-29.3-191.3-37.2
	c-33.9-2.7-67.7-0.9-103.4,1c-8.6,0.5-17.2,0.9-25.9,1.3c-26.4,19.1-51,40.4-73.6,63.8C281.3,211.3,315.4,209.5,348.7,207.7z"/>
<path class="st6" d="M965.9,400c-27-2.3-52.8-4.5-80.7-3.2c20.6,19.2,38.9,40.9,54.6,64.6c6.7,0.5,13.6,1.1,20.7,1.7
	c51.5,4.4,126.6,8.2,209.9-11.1c-5.4-20.8-12-41.2-19.7-60.9C1076.8,408.5,1015.3,404.2,965.9,400z"/>
<path class="st7" d="M1181.8,507.9c-83.6,18.3-128.3,18.5-167.9,14.8c-13.5-1.3-27.3-2.5-43.3-3.1c6.8,16.2,12.6,33.1,17.1,50.6
	l3.6,14.1c5.6,0.5,11.1,1,16.7,1.5c41.6,3.9,84.6,7.9,179.6-13.1C1187,550.7,1185,529.1,1181.8,507.9z"/>
<path class="st4" d="M325.5,333.3c30.8-2.2,59.8-4.3,92-1.1c21.3,2.1,41,4.5,59.2,7.1c41.5-21.2,87.5-34.6,135.9-38.2
	c-36.8-9.6-100-23.1-188.7-31.9c-37.6-3.7-70.8-1.3-102.9,0.9c-37.4,2.7-75.9,5.4-124.9-1.2c-13.4,18.5-25.7,37.9-36.8,58
	C227,339.3,280.9,336.5,325.5,333.3z"/>
<path class="st7" d="M292.2,570.1c4.5-17.5,10.2-34.3,17.1-50.6c-16,0.5-29.8,1.8-43.3,3.1c-39.3,3.7-87.3,7.2-168-14.1
	c-3.1,21-5.1,42.4-5.8,64.1c95.1,21,138,17,179.6,13.1c5.6-0.5,11.1-1,16.7-1.5L292.2,570.1z"/>
<path class="st6" d="M319.5,463.1c7.1-0.6,14-1.2,20.7-1.7c15.7-23.8,34-45.4,54.6-64.6c-27.9-1.3-53.7,0.8-80.7,3.2
	c-49.2,4.2-110.8,8.7-183.6-11.8c-8,20.3-14.9,41.2-20.5,62.6C194.1,474.3,268,467.6,319.5,463.1z"/>
</svg>
