<?xml version="1.0" encoding="utf-8"?>
<!-- Generator: Adobe Illustrator 24.0.1, SVG Export Plug-In . SVG Version: 6.00 Build 0)  -->
<!DOCTYPE svg PUBLIC "-//W3C//DTD SVG 1.1//EN" "http://www.w3.org/Graphics/SVG/1.1/DTD/svg11.dtd" [
	<!ENTITY ns_extend "http://ns.adobe.com/Extensibility/1.0/">
	<!ENTITY ns_ai "http://ns.adobe.com/AdobeIllustrator/10.0/">
	<!ENTITY ns_graphs "http://ns.adobe.com/Graphs/1.0/">
	<!ENTITY ns_vars "http://ns.adobe.com/Variables/1.0/">
	<!ENTITY ns_imrep "http://ns.adobe.com/ImageReplacement/1.0/">
	<!ENTITY ns_sfw "http://ns.adobe.com/SaveForWeb/1.0/">
	<!ENTITY ns_custom "http://ns.adobe.com/GenericCustomNamespace/1.0/">
	<!ENTITY ns_adobe_xpath "http://ns.adobe.com/XPath/1.0/">
]>
<svg version="1.1" id="Layer_1" xmlns:x="&ns_extend;" xmlns:i="&ns_ai;" xmlns:graph="&ns_graphs;"
	 xmlns="http://www.w3.org/2000/svg" xmlns:xlink="http://www.w3.org/1999/xlink" x="0px" y="0px" viewBox="0 0 1280 1024"
	 style="enable-background:new 0 0 1280 1024;" xml:space="preserve">
<style type="text/css">
	.st0{fill:url(#SVGID_1_);}
	.st1{fill:#2998D0;}
	.st2{fill:#E2BD23;}
	.st3{fill:#E29D23;}
	.st4{fill:#E57F20;}
	.st5{fill:#E24723;}
</style>
<metadata>
	<sfw  xmlns="&ns_sfw;">
		<slices></slices>
		<sliceSourceBounds  bottomLeftOrigin="true" height="991.3" width="1194.2" x="42.9" y="16.3"></sliceSourceBounds>
	</sfw>
</metadata>
<radialGradient id="SVGID_1_" cx="636.9102" cy="73.6232" r="528.4388" gradientTransform="matrix(1 0 0 -1 0 1021.896)" gradientUnits="userSpaceOnUse">
	<stop  offset="0" style="stop-color:#E58120"/>
	<stop  offset="0.5434" style="stop-color:#E57F20"/>
	<stop  offset="0.7391" style="stop-color:#E47821"/>
	<stop  offset="0.8781" style="stop-color:#E26D23"/>
	<stop  offset="0.9903" style="stop-color:#DF5C26"/>
	<stop  offset="1" style="stop-color:#DF5A26"/>
</radialGradient>
<path class="st0" d="M876.8,874.4c-114.7,2.5-202.7,52-236.8,74.3c-34.1-22.4-122.1-71.8-236.8-74.3
	C415.5,754.6,517,660.8,640,660.8S864.5,754.6,876.8,874.4z"/>
<path class="st1" d="M636.5,1007.7H42.9l26.7-46.2c31.7,10.7,97.1,20.7,202.5-16.4c28.1-9.9,55.4-15.8,81.7-18.6
	c17-1.8,33.6-2.4,49.6-1.9c128.2,3.8,220.3,73.2,221.4,74.1L636.5,1007.7z"/>
<path class="st1" d="M1237.1,1007.7H643.5l11.7-9.1c1.2-0.9,92.9-70.6,221.4-74.2c16-0.5,32.5,0.1,49.6,2
	c26.3,2.8,53.6,8.8,81.7,18.7c105.3,37.2,170.7,27.2,202.4,16.4L1237.1,1007.7z"/>
<path class="st2" d="M1184.8,917c-26.5,6.3-78.7,10.1-160.3-18.7c-33.8-11.9-66.5-18.8-97.8-21.9c-0.5-6.6-1.2-13.2-2.2-19.7
	L1091.8,756L1184.8,917z"/>
<path class="st3" d="M1067,713.1l-154.7,93.1c-10.8-31.7-26.9-60.9-47.4-86.5l117.4-153.2L1067,713.1z"/>
<path class="st4" d="M955.6,520.1L830.4,683.3c-19.2-17-40.6-31.4-63.8-42.8l85-300.6L955.6,520.1z"/>
<path class="st5" d="M817,280.1l-96.8,342.5c-17.8-5.2-36.3-8.7-55.4-10.3V16.4L817,280.1z"/>
<path class="st5" d="M615.2,16.3v595.9c-19.1,1.6-37.6,5.1-55.4,10.3L463,280v0L615.2,16.3z"/>
<path class="st4" d="M513.4,640.5c-23.2,11.4-44.7,25.8-63.8,42.8L324.4,520l104-180.2L513.4,640.5z"/>
<path class="st3" d="M415,719.7c-20.5,25.6-36.6,54.8-47.4,86.5L213,713.1l84.6-146.6L415,719.7z"/>
<path class="st2" d="M355.5,856.7c-1,6.5-1.7,13-2.2,19.7c-31.2,3.1-64,10-97.8,21.9c-81.7,28.8-133.8,25-160.3,18.7l93-161.1
	L355.5,856.7z"/>
</svg>
