<?xml version="1.0" encoding="utf-8"?>
<!-- Generator: Adobe Illustrator 24.0.1, SVG Export Plug-In . SVG Version: 6.00 Build 0)  -->
<svg version="1.1" id="Layer_1" xmlns="http://www.w3.org/2000/svg" xmlns:xlink="http://www.w3.org/1999/xlink" x="0px" y="0px"
	 width="1280px" height="1024px" viewBox="0 0 1280 1024" style="enable-background:new 0 0 1280 1024;" xml:space="preserve">
<style type="text/css">
	.st0{fill:url(#SVGID_1_);}
	.st1{fill:url(#SVGID_2_);}
	.st2{fill:url(#SVGID_3_);}
	.st3{fill:url(#SVGID_4_);}
	.st4{fill:url(#SVGID_5_);}
	.st5{fill:url(#SVGID_6_);}
</style>
<g>
	<linearGradient id="SVGID_1_" gradientUnits="userSpaceOnUse" x1="424.7406" y1="577.2935" x2="806.498" y2="577.2935" style="fill:red">
		<stop  offset="0.2493" style="stop-color:#816A23"/>
		<stop  offset="0.2667" style="stop-color:#907A34"/>
		<stop  offset="0.3732" style="stop-color:#EBD393"/>
		<stop  offset="0.4859" style="stop-color:#DFCF9D"/>
		<stop  offset="0.6341" style="stop-color:#816A23"/>
		<stop  offset="1" style="stop-color:#816A23"/>
	</linearGradient>
	<polygon class="st0" points="557.85,660.88 574.11,626.03 509.07,495.94 361.55,493.71 471.9,555.95 	"/>
	<linearGradient id="SVGID_2_" gradientUnits="userSpaceOnUse" x1="424.7406" y1="499.955" x2="806.498" y2="499.955">
		<stop  offset="0.2493" style="stop-color:#816A23"/>
		<stop  offset="0.2667" style="stop-color:#907A34"/>
		<stop  offset="0.3732" style="stop-color:#EBD393"/>
		<stop  offset="0.4859" style="stop-color:#DFCF9D"/>
		<stop  offset="0.6341" style="stop-color:#816A23"/>
		<stop  offset="1" style="stop-color:#816A23"/>
	</linearGradient>
	<path class="st1" d="M590.38,592.73l33.68-67.37c0,0-57.5-112.18-60.59-117.6c0,0-151.58-0.58-155.94-0.58
		c-4.36,0-87.11,3.77-87.11,3.77l89.15,55.46L528.33,467C534.43,480.64,590.38,592.73,590.38,592.73z"/>
	<linearGradient id="SVGID_3_" gradientUnits="userSpaceOnUse" x1="356.4245" y1="331.7054" x2="523.2349" y2="331.7054">
		<stop  offset="0" style="stop-color:#816A23"/>
		<stop  offset="0.3659" style="stop-color:#816A23"/>
		<stop  offset="0.5141" style="stop-color:#DFCF9D"/>
		<stop  offset="0.6268" style="stop-color:#EBD393"/>
		<stop  offset="0.7333" style="stop-color:#907A34"/>
		<stop  offset="0.7507" style="stop-color:#816A23"/>
	</linearGradient>
	<polygon class="st2" points="407.53,407.18 487.23,252.46 320.42,410.95 	"/>
	<linearGradient id="SVGID_4_" gradientUnits="userSpaceOnUse" x1="756.7651" y1="331.7054" x2="923.5754" y2="331.7054">
		<stop  offset="0.2493" style="stop-color:#816A23"/>
		<stop  offset="0.2667" style="stop-color:#907A34"/>
		<stop  offset="0.3732" style="stop-color:#EBD393"/>
		<stop  offset="0.4859" style="stop-color:#DFCF9D"/>
		<stop  offset="0.6341" style="stop-color:#816A23"/>
		<stop  offset="1" style="stop-color:#816A23"/>
	</linearGradient>
	<polygon class="st3" points="874.41,410.95 792.77,252.46 959.58,410.95 	"/>
	<linearGradient id="SVGID_5_" gradientUnits="userSpaceOnUse" x1="424.7406" y1="632.6269" x2="806.498" y2="632.6269">
		<stop  offset="0.2493" style="stop-color:#816A23"/>
		<stop  offset="0.2667" style="stop-color:#907A34"/>
		<stop  offset="0.3732" style="stop-color:#EBD393"/>
		<stop  offset="0.4859" style="stop-color:#DFCF9D"/>
		<stop  offset="0.6341" style="stop-color:#816A23"/>
		<stop  offset="1" style="stop-color:#816A23"/>
	</linearGradient>
	<polygon class="st4" points="771.96,495.94 634.89,771.54 716.28,771.54 748.6,647.25 808.74,555.95 918.7,493.71 	"/>
	<linearGradient id="SVGID_6_" gradientUnits="userSpaceOnUse" x1="424.7406" y1="589.7955" x2="806.498" y2="589.7955">
		<stop  offset="0.2493" style="stop-color:#816A23"/>
		<stop  offset="0.2667" style="stop-color:#907A34"/>
		<stop  offset="0.3732" style="stop-color:#EBD393"/>
		<stop  offset="0.4859" style="stop-color:#DFCF9D"/>
		<stop  offset="0.6341" style="stop-color:#816A23"/>
		<stop  offset="1" style="stop-color:#816A23"/>
	</linearGradient>
	<path class="st5" d="M718.92,408.05c-5.81,11.62-161.07,315.94-161.07,315.94l24.54,47.56h18.56
		c33.22-66.2,145.94-290.75,153.85-305.92l112.4,0.89l92.38-55.56L718.92,408.05z"/>
</g>
</svg>
