<?xml version="1.0" encoding="utf-8"?>
<!-- Generator: Adobe Illustrator 24.0.1, SVG Export Plug-In . SVG Version: 6.00 Build 0)  -->
<svg version="1.1" id="Layer_1" xmlns="http://www.w3.org/2000/svg" xmlns:xlink="http://www.w3.org/1999/xlink" x="0px" y="0px"
	 width="1280px" height="327.13px" viewBox="0 0 1280 327.13" style="enable-background:new 0 0 1280 327.13;" xml:space="preserve"
	>
<style type="text/css">
	.st0{fill:url(#SVGID_1_);}
	.st1{fill:#1A1A1A;}
	.st2{fill:#4D4E4E;}
	.st3{fill:#FFFFFF;}
	.st4{fill:url(#SVGID_2_);}
	.st5{fill:url(#SVGID_3_);}
	.st6{fill:url(#SVGID_4_);}
</style>
<g>
	<g>
		<radialGradient id="SVGID_1_" cx="108.8016" cy="55.7764" r="121.2404" fx="81.868" fy="28.5779" gradientUnits="userSpaceOnUse">
			<stop  offset="0" style="stop-color:#FFFFFF"/>
			<stop  offset="0.028" style="stop-color:#FCFAF5"/>
			<stop  offset="0.1823" style="stop-color:#EADFC0"/>
			<stop  offset="0.3335" style="stop-color:#DBC995"/>
			<stop  offset="0.4788" style="stop-color:#D0B873"/>
			<stop  offset="0.6164" style="stop-color:#C8AC5B"/>
			<stop  offset="0.7431" style="stop-color:#C3A54C"/>
			<stop  offset="0.8488" style="stop-color:#C1A247"/>
		</radialGradient>
		<path class="st0" d="M302.23,155.28c0,37.74-14.61,72.13-38.46,97.82h-18.48c26.95-23.97,43.92-58.92,43.92-97.82
			c0-72.29-58.6-130.87-130.88-130.87S27.46,82.99,27.46,155.28c0,38.91,16.98,73.85,43.92,97.82H52.9
			c-23.86-25.69-38.46-60.08-38.46-97.82c0-79.35,64.55-143.9,143.9-143.9S302.23,75.93,302.23,155.28z"/>
		<path class="st1" d="M289.21,155.28c0,38.91-16.98,73.85-43.92,97.82H71.38c-26.95-23.97-43.92-58.92-43.92-97.82
			c0-72.29,58.6-130.87,130.87-130.87S289.21,82.99,289.21,155.28z"/>
		<g>
			<path class="st1" d="M668.2,234.61c-6,0-11.66-1.08-16.82-3.21c-5.17-2.14-10.41-5.71-15.56-10.61l-3.65-3.47v14.46h-22.99V61.45
				h22.99v80.15l3.69-3.69c4.75-4.75,9.95-8.36,15.45-10.73c5.48-2.36,11.43-3.55,17.69-3.55c13.62,0,25.36,5.23,34.9,15.53
				c9.58,10.36,14.44,23.87,14.44,40.16c0,15.68-5.02,28.97-14.93,39.49C693.54,229.3,681.69,234.61,668.2,234.61z M663.26,144.71
				c-9.24,0-17.02,3.21-23.12,9.53c-6.09,6.3-9.18,14.61-9.18,24.69c0,10.27,3.08,18.72,9.16,25.12c6.1,6.43,13.89,9.69,23.13,9.69
				c8.98,0,16.65-3.32,22.79-9.85c6.11-6.5,9.2-14.87,9.2-24.86c0-9.93-3.05-18.21-9.05-24.61
				C680.16,147.97,672.44,144.71,663.26,144.71z"/>
			<path class="st1" d="M733.39,231.79V126.45h19.27v15.2c0,0,1.91-7.35,11.99-13.95c3.87-2.54,9.68-4.07,14.26-4.07
				c5.25,0,9.89,1.74,12.93,3.61c-4.57,5.44-8.29,11.46-11.11,17.95c-2.73-1.16-5.22-1.78-7.16-1.78c-5.06,0-9.3,3.02-12.62,8.97
				c-3.13,5.62-4.66,16.05-4.66,31.9l0.1,5.38v42.15H733.39z"/>
			<path class="st1" d="M845.75,234.61c-13.48,0-25.31-5.32-35.17-15.8c-9.9-10.52-14.92-23.81-14.92-39.49
				c0-16.29,4.85-29.81,14.43-40.16c9.53-10.31,21.26-15.53,34.86-15.53c6.25,0,12.19,1.2,17.67,3.55
				c5.49,2.36,10.64,5.97,15.33,10.72l3.7,3.75v-15.2h23.19v105.34h-23.19v-14.47l-3.65,3.47c-5.15,4.9-10.37,8.47-15.5,10.61
				C857.37,233.53,851.74,234.61,845.75,234.61z M850.55,144.71c-9.09,0-16.75,3.26-22.77,9.71c-5.99,6.4-9.02,14.68-9.02,24.61
				c0,10,3.09,18.36,9.17,24.86c6.12,6.54,13.77,9.86,22.72,9.86c9.22,0,16.98-3.26,23.07-9.7c6.06-6.4,9.13-14.85,9.13-25.12
				c0-10.07-3.08-18.38-9.14-24.68C867.62,147.91,859.83,144.71,850.55,144.71z"/>
			<path class="st1" d="M994.25,231.79v-45.86c0-13.4-0.6-22.12-1.84-26.64c-1.29-4.74-3.61-8.42-6.9-10.96
				c-3.29-2.54-7.37-3.82-12.13-3.82c-6.1,0-11.42,2.08-15.8,6.17c-4.29,4-7.29,9.57-8.93,16.54c-0.85,3.62-1.26,11.06-1.26,22.74
				v41.84H924.2V126.45h23.19v13.73l3.55-2.99c6.04-5.09,11.55-8.67,16.38-10.63c4.78-1.94,9.74-2.93,14.74-2.93
				c10.23,0,19.02,3.62,26.15,10.76c5.92,6,8.93,15.11,8.93,27.1v70.31H994.25z"/>
			<path class="st1" d="M1082.27,234.61c-13.48,0-25.31-5.32-35.17-15.8c-9.9-10.52-14.92-23.81-14.92-39.49
				c0-16.29,4.85-29.8,14.43-40.16c9.53-10.31,21.26-15.53,34.86-15.53c6.25,0,12.19,1.2,17.67,3.55
				c5.49,2.36,10.64,5.97,15.33,10.72l3.7,3.75v-80.2h23.19v170.34h-23.19v-14.47l-3.65,3.47c-5.15,4.9-10.37,8.47-15.5,10.61
				C1093.9,233.53,1088.26,234.61,1082.27,234.61z M1087.07,144.71c-9.09,0-16.75,3.26-22.77,9.71c-5.99,6.4-9.02,14.68-9.02,24.61
				c0,10,3.09,18.36,9.17,24.86c6.12,6.54,13.77,9.86,22.72,9.86c9.22,0,16.98-3.26,23.07-9.7c6.06-6.4,9.13-14.85,9.13-25.12
				c0-10.07-3.08-18.38-9.14-24.68C1104.14,147.91,1096.35,144.71,1087.07,144.71z"/>
		</g>
		<path class="st2" d="M493.18,126.66h14.44l36.49,81.77l35.43-81.77h14.54l-63.34,145.03h-14.43l20.44-46.88L493.18,126.66z"/>
		<path class="st2" d="M1250.6,197.02l11.47,6.03c-3.76,7.39-8.11,13.35-13.04,17.89c-4.93,4.54-10.48,7.99-16.64,10.35
			c-6.16,2.36-13.14,3.55-20.92,3.55c-17.26,0-30.75-5.65-40.48-16.96c-9.73-11.31-14.6-24.09-14.6-38.35
			c0-13.41,4.12-25.37,12.36-35.87c10.44-13.35,24.42-20.03,41.94-20.03c18.03,0,32.43,6.84,43.2,20.51
			c7.65,9.66,11.55,21.71,11.68,36.16h-95.17c0.26,12.29,4.18,22.36,11.77,30.21c7.59,7.86,16.97,11.78,28.13,11.78
			c5.38,0,10.62-0.94,15.72-2.81c5.09-1.87,9.42-4.36,12.99-7.46C1242.58,208.93,1246.44,203.93,1250.6,197.02z M1250.6,168.54
			c-1.82-7.26-4.46-13.06-7.93-17.4c-3.47-4.34-8.06-7.84-13.77-10.5c-5.71-2.66-11.71-3.99-18.01-3.99
			c-10.38,0-19.31,3.34-26.77,10.01c-5.45,4.86-9.57,12.15-12.36,21.87H1250.6z"/>
		<path class="st2" d="M478.14,160.39c-1.58-8.93-5.83-17.15-12.37-23.69c-7.37-7.35-16.82-11.81-27.03-12.85
			c-1.52-0.15-3.03-0.23-4.57-0.23c-0.89,0-1.76,0.02-2.64,0.08c-8.37,0.48-16.34,3.26-23.17,8.12c-2.01,1.41-3.97,3.05-5.79,4.88
			l-2.61,2.61l-2.61-2.61c-1.83-1.83-3.78-3.47-5.79-4.88c-6.83-4.86-14.8-7.64-23.17-8.12c-0.87-0.06-1.74-0.08-2.64-0.08
			c-1.54,0-3.05,0.08-4.57,0.23c-10.21,1.04-19.66,5.5-27.03,12.85c-6.54,6.54-10.8,14.76-12.37,23.69
			c-0.48,2.57-0.62,5.22-0.62,7.92c0,1.08,0.02,4.99,0.02,5.89v57.53h13.85V200.8v-27.24c0.01-2.74,0.07-5.26,0.17-7.57
			c0.34-7.6,3.59-14.78,8.96-20.17l0,0c4.93-4.96,11.48-8.03,18.45-8.55c2.38-0.18,4.92-0.2,7.39,0.17
			c5.98,0.81,16.07,4.16,20.66,14.43c1.97,4.41,2.37,13.21,2.37,25.91v53.96h13.85v-53.96c0-12.71,0.4-21.5,2.37-25.91
			c4.58-10.27,14.68-13.62,20.66-14.43c2.47-0.36,5.01-0.35,7.39-0.17c6.98,0.52,13.52,3.59,18.45,8.55l0,0
			c5.36,5.39,8.62,12.57,8.96,20.17c0.1,2.31,0.16,4.83,0.17,7.57v27.24v30.93h13.85V174.2c0-0.89,0.02-4.81,0.02-5.89
			C478.76,165.61,478.62,162.97,478.14,160.39z"/>
		<g>
			<g>
				<path class="st3" d="M137.03,102.42c-4.47-4.99-7.21-11.56-7.21-18.77c0-15.56,12.66-28.21,28.21-28.21
					c15.56,0,28.21,12.66,28.21,28.21c0,7.35-2.85,14.04-7.48,19.06c5.23-1.78,10.68-2.91,16.27-3.32
					c2.06-4.84,3.21-10.16,3.21-15.74c0-22.18-18.04-40.22-40.22-40.22s-40.22,18.04-40.22,40.22c0,5.57,1.14,10.88,3.2,15.71
					C126.5,99.71,131.87,100.74,137.03,102.42z"/>
				<path class="st3" d="M237.09,127.47c-18.39-18.39-46.98-20.3-67.51-5.74c-2.39,1.67-4.68,3.6-6.82,5.74l-4.44,4.44l-4.42-4.44
					c-2.14-2.14-4.42-4.07-6.81-5.74c-20.51-14.56-49.12-12.65-67.51,5.74c-20.53,20.53-20.53,53.8,0,74.33l4.44,4.44l25.3,25.3
					v-18.2l-20.64-20.64c-15.48-15.48-15.48-40.65,0-56.13c7.49-7.51,17.46-11.62,28.07-11.62c1.83,0,3.64,0.13,5.43,0.38v127.78
					h72.33V125.31c0,0,0,0,0.01,0c1.77-0.24,3.58-0.37,5.42-0.37c10.61,0,20.58,4.12,28.07,11.62c15.48,15.48,15.48,40.65,0,56.13
					l-20.62,20.62v18.2l29.72-29.72C257.61,181.27,257.61,147.99,237.09,127.47z M181.64,240.29h-46.61V129.4
					c2.72,1.41,5.29,3.14,7.64,5.19c0.74,0.63,1.45,1.29,2.14,1.98l7.1,7.1v74.34c0,3.55,2.88,6.43,6.43,6.43
					c3.55,0,6.43-2.88,6.43-6.43v-74.36l7.09-7.09c0.69-0.69,1.4-1.35,2.14-1.98c2.36-2.05,4.93-3.77,7.64-5.18V240.29z"/>
			</g>
			<g>
				<polygon class="st1" points="194.5,253.1 180.14,277.99 136.53,277.99 122.17,253.1 				"/>
				<polygon class="st3" points="180.14,277.99 172.71,290.85 143.96,290.85 136.53,277.99 				"/>
			</g>
		</g>
	</g>
	<radialGradient id="SVGID_2_" cx="156.0028" cy="311.8532" r="13.4467" gradientUnits="userSpaceOnUse">
		<stop  offset="0" style="stop-color:#FFFFFF"/>
		<stop  offset="0.0188" style="stop-color:#FCFAF5"/>
		<stop  offset="0.122" style="stop-color:#EADFC0"/>
		<stop  offset="0.2233" style="stop-color:#DBC995"/>
		<stop  offset="0.3206" style="stop-color:#D0B873"/>
		<stop  offset="0.4127" style="stop-color:#C8AC5B"/>
		<stop  offset="0.4976" style="stop-color:#C3A54C"/>
		<stop  offset="0.5684" style="stop-color:#C1A247"/>
	</radialGradient>
	<polygon class="st4" points="143.96,290.85 172.71,290.85 158.34,315.75 	"/>
</g>
</svg>
