<?xml version="1.0" encoding="utf-8"?>
<!-- Generator: Adobe Illustrator 24.0.1, SVG Export Plug-In . SVG Version: 6.00 Build 0)  -->
<svg version="1.1" id="Layer_1" xmlns="http://www.w3.org/2000/svg" xmlns:xlink="http://www.w3.org/1999/xlink" x="0px" y="0px"
	 width="1280px" height="328.7px" viewBox="0 0 1280 328.7" style="enable-background:new 0 0 1280 328.7;" xml:space="preserve">
<style type="text/css">
	.st0{fill:url(#SVGID_1_);}
	.st1{fill:#1A1A1A;}
	.st2{fill:#4D4E4E;}
	.st3{fill:#FFFFFF;}
	.st4{fill:url(#SVGID_2_);}
	.st5{fill:url(#SVGID_3_);}
	.st6{fill:#C1A247;}
	.st7{fill:url(#SVGID_4_);}
	.st8{fill:url(#SVGID_5_);}
	.st9{fill:url(#SVGID_6_);}
</style>
<g>
	<g>
		
			<radialGradient id="SVGID_1_" cx="102.1561" cy="55.2105" r="122.7572" fx="74.8855" fy="27.6717" gradientUnits="userSpaceOnUse">
			<stop  offset="0" style="stop-color:#FFFFFF"/>
			<stop  offset="0.028" style="stop-color:#FCFAF5"/>
			<stop  offset="0.1823" style="stop-color:#EADFC0"/>
			<stop  offset="0.3335" style="stop-color:#DBC995"/>
			<stop  offset="0.4788" style="stop-color:#D0B873"/>
			<stop  offset="0.6164" style="stop-color:#C8AC5B"/>
			<stop  offset="0.7431" style="stop-color:#C3A54C"/>
			<stop  offset="0.8488" style="stop-color:#C1A247"/>
		</radialGradient>
		<path class="st0" d="M298.01,155.96c0,38.21-14.79,73.04-38.95,99.05h-18.72c27.28-24.27,44.47-59.65,44.47-99.05
			c0-73.19-59.33-132.51-132.51-132.51S19.8,82.77,19.8,155.96c0,39.39,17.19,74.77,44.47,99.05H45.55
			C21.4,228.99,6.61,194.17,6.61,155.96c0-80.34,65.36-145.7,145.7-145.7S298.01,75.61,298.01,155.96z"/>
		<path class="st1" d="M284.82,155.96c0,39.39-17.19,74.77-44.47,99.05H64.27c-27.28-24.27-44.47-59.65-44.47-99.05
			c0-73.19,59.33-132.51,132.51-132.51S284.82,82.77,284.82,155.96z"/>
		<g>
			<path class="st1" d="M668.55,236.28c-6.08,0-11.8-1.09-17.03-3.25c-5.24-2.17-10.54-5.78-15.76-10.74l-3.69-3.51v14.65h-23.28
				V60.95h23.28v81.15l3.73-3.73c4.81-4.81,10.08-8.47,15.65-10.87c5.55-2.39,11.58-3.6,17.91-3.6c13.79,0,25.68,5.29,35.34,15.73
				c9.7,10.49,14.62,24.17,14.62,40.66c0,15.88-5.09,29.33-15.12,39.99C694.21,230.9,682.21,236.28,668.55,236.28z M663.55,145.25
				c-9.35,0-17.23,3.25-23.41,9.65c-6.17,6.38-9.29,14.79-9.29,24.99c0,10.4,3.12,18.96,9.28,25.44c6.18,6.51,14.06,9.81,23.42,9.81
				c9.09,0,16.86-3.36,23.08-9.98c6.18-6.58,9.32-15.05,9.32-25.17c0-10.06-3.08-18.44-9.17-24.92
				C680.66,148.56,672.85,145.25,663.55,145.25z"/>
			<path class="st1" d="M734.56,233.43V126.77h19.51v15.39c0,0,1.93-7.44,12.14-14.13c3.92-2.57,9.8-4.12,14.44-4.12
				c5.32,0,10.01,1.76,13.09,3.65c-4.62,5.51-8.4,11.61-11.25,18.17c-2.77-1.17-5.29-1.81-7.25-1.81c-5.12,0-9.42,3.06-12.78,9.08
				c-3.17,5.69-4.72,16.25-4.72,32.3l0.1,5.45v42.68H734.56z"/>
			<path class="st1" d="M848.33,236.28c-13.65,0-25.63-5.38-35.61-16c-10.02-10.65-15.11-24.11-15.11-39.99
				c0-16.5,4.92-30.18,14.61-40.66c9.65-10.44,21.52-15.73,35.29-15.73c6.33,0,12.35,1.21,17.89,3.6
				c5.56,2.39,10.78,6.05,15.52,10.86l3.74,3.8v-15.39h23.48v106.66h-23.48v-14.65l-3.69,3.51c-5.22,4.96-10.5,8.57-15.7,10.74
				C860.09,235.19,854.39,236.28,848.33,236.28z M853.19,145.25c-9.2,0-16.96,3.31-23.06,9.83c-6.06,6.48-9.13,14.86-9.13,24.92
				c0,10.12,3.13,18.59,9.29,25.17c6.2,6.62,13.94,9.98,23.01,9.98c9.33,0,17.19-3.3,23.36-9.82c6.13-6.48,9.24-15.04,9.24-25.44
				c0-10.2-3.11-18.61-9.26-24.99C870.46,148.5,862.58,145.25,853.19,145.25z"/>
			<path class="st1" d="M998.68,233.43v-46.44c0-13.57-0.61-22.4-1.86-26.98c-1.31-4.8-3.66-8.53-6.99-11.1
				c-3.33-2.57-7.46-3.87-12.28-3.87c-6.18,0-11.56,2.1-16,6.25c-4.34,4.05-7.38,9.69-9.04,16.75c-0.86,3.66-1.28,11.2-1.28,23.03
				v42.36h-23.48V126.77h23.48v13.9l3.6-3.03c6.11-5.15,11.69-8.77,16.58-10.76c4.84-1.97,9.87-2.96,14.92-2.96
				c10.35,0,19.26,3.66,26.48,10.89c6,6.07,9.04,15.3,9.04,27.44v71.19H998.68z"/>
			<path class="st1" d="M1087.81,236.28c-13.65,0-25.63-5.38-35.61-16c-10.02-10.65-15.11-24.11-15.11-39.99
				c0-16.5,4.92-30.18,14.61-40.66c9.65-10.44,21.52-15.73,35.29-15.73c6.33,0,12.35,1.21,17.89,3.6
				c5.56,2.39,10.78,6.05,15.52,10.86l3.74,3.8V60.95h23.48v172.47h-23.48v-14.65l-3.69,3.51c-5.22,4.96-10.5,8.57-15.7,10.74
				C1099.57,235.19,1093.87,236.28,1087.81,236.28z M1092.67,145.25c-9.2,0-16.96,3.31-23.06,9.83c-6.06,6.48-9.13,14.86-9.13,24.92
				c0,10.12,3.12,18.59,9.29,25.17c6.2,6.62,13.94,9.98,23.01,9.98c9.33,0,17.19-3.3,23.36-9.82c6.13-6.48,9.24-15.04,9.24-25.44
				c0-10.2-3.11-18.61-9.26-24.99C1109.94,148.5,1102.06,145.25,1092.67,145.25z"/>
		</g>
		<path class="st6" d="M491.34,126.99h14.62l36.95,82.79l35.88-82.79h14.73l-64.13,146.84h-14.61l20.7-47.47L491.34,126.99z"/>
		<path class="st6" d="M1258.23,198.22l11.61,6.1c-3.81,7.48-8.21,13.52-13.2,18.11c-4.99,4.59-10.61,8.09-16.85,10.48
			c-6.24,2.39-13.3,3.59-21.18,3.59c-17.47,0-31.13-5.72-40.98-17.18c-9.85-11.45-14.78-24.39-14.78-38.83
			c0-13.58,4.17-25.69,12.51-36.32c10.57-13.52,24.73-20.28,42.46-20.28c18.26,0,32.84,6.92,43.74,20.77
			c7.75,9.78,11.69,21.98,11.82,36.62h-96.36c0.26,12.44,4.24,22.64,11.92,30.59c7.69,7.96,17.18,11.93,28.48,11.93
			c5.45,0,10.76-0.95,15.91-2.84c5.16-1.89,9.54-4.41,13.16-7.55C1250.12,210.28,1254.03,205.22,1258.23,198.22z M1258.23,169.38
			c-1.84-7.35-4.52-13.22-8.03-17.62c-3.52-4.4-8.16-7.94-13.94-10.63c-5.78-2.69-11.86-4.04-18.23-4.04
			c-10.51,0-19.55,3.38-27.1,10.14c-5.52,4.92-9.69,12.3-12.52,22.15H1258.23z"/>
		<path class="st6" d="M476.12,161.14c-1.6-9.04-5.91-17.36-12.53-23.99c-7.46-7.44-17.03-11.96-27.37-13.01
			c-1.53-0.15-3.07-0.23-4.62-0.23c-0.9,0-1.79,0.02-2.67,0.08c-8.47,0.48-16.54,3.3-23.46,8.22c-2.04,1.43-4.01,3.09-5.87,4.94
			l-2.64,2.64l-2.64-2.64c-1.85-1.85-3.83-3.51-5.87-4.94c-6.92-4.92-14.99-7.74-23.46-8.22c-0.88-0.06-1.77-0.08-2.67-0.08
			c-1.56,0-3.09,0.08-4.62,0.23c-10.34,1.05-19.91,5.57-27.37,13.01c-6.62,6.62-10.93,14.95-12.53,23.99
			c-0.48,2.61-0.63,5.29-0.63,8.02c0,1.09,0.02,5.06,0.02,5.96v58.25h14.02v-31.32v-27.58c0.01-2.77,0.07-5.33,0.18-7.66
			c0.35-7.69,3.64-14.96,9.07-20.42l0,0c5-5.02,11.62-8.13,18.68-8.66c2.41-0.18,4.98-0.2,7.48,0.17
			c6.05,0.82,16.28,4.21,20.92,14.61c1.99,4.47,2.4,13.37,2.4,26.23v54.63h14.02v-54.63c0-12.86,0.4-21.77,2.4-26.23
			c4.64-10.4,14.86-13.79,20.92-14.61c2.51-0.37,5.07-0.35,7.48-0.17c7.07,0.53,13.69,3.63,18.68,8.66l0,0
			c5.43,5.46,8.72,12.73,9.07,20.42c0.11,2.34,0.17,4.89,0.18,7.66v27.58v31.32h14.02v-58.25c0-0.9,0.02-4.87,0.02-5.96
			C476.74,166.42,476.6,163.74,476.12,161.14z"/>
		<g>
			<g>
				<path class="st3" d="M130.73,102.44c-4.52-5.05-7.3-11.7-7.3-19c0-15.75,12.81-28.56,28.56-28.56
					c15.75,0,28.56,12.81,28.56,28.56c0,7.45-2.89,14.21-7.57,19.3c5.29-1.81,10.82-2.95,16.48-3.36c2.09-4.9,3.25-10.29,3.25-15.94
					c0-22.46-18.27-40.72-40.72-40.72s-40.72,18.27-40.72,40.72c0,5.64,1.15,11.01,3.24,15.9
					C120.07,99.7,125.51,100.74,130.73,102.44z"/>
				<path class="st3" d="M232.05,127.8c-18.62-18.62-47.57-20.56-68.36-5.81c-2.42,1.69-4.74,3.65-6.9,5.81l-4.49,4.49l-4.48-4.49
					c-2.16-2.16-4.48-4.12-6.9-5.81c-20.77-14.75-49.74-12.81-68.36,5.81c-20.78,20.78-20.78,54.47,0,75.26l4.49,4.49l25.62,25.62
					v-18.42l-20.9-20.9c-15.67-15.67-15.67-41.16,0-56.83c7.58-7.6,17.68-11.77,28.42-11.77c1.85,0,3.69,0.13,5.49,0.39v129.38
					h73.24V125.62c0,0,0,0,0.01,0c1.79-0.24,3.63-0.37,5.48-0.37c10.74,0,20.83,4.17,28.42,11.77c15.67,15.67,15.67,41.16,0,56.83
					l-20.88,20.88v18.42l30.09-30.09C252.83,182.27,252.83,148.58,232.05,127.8z M175.91,242.03h-47.2V129.76
					c2.75,1.43,5.35,3.18,7.74,5.25c0.75,0.63,1.46,1.3,2.16,2l7.19,7.19v75.27c0,3.6,2.91,6.51,6.51,6.51
					c3.6,0,6.51-2.91,6.51-6.51v-75.29l7.18-7.18c0.7-0.7,1.42-1.37,2.16-2c2.39-2.07,4.99-3.82,7.74-5.25V242.03z"/>
			</g>
			<g>
				<polygon class="st1" points="188.93,255 174.38,280.21 130.23,280.21 115.69,255 				"/>
				<polygon class="st3" points="174.38,280.21 166.86,293.23 137.75,293.23 130.23,280.21 				"/>
			</g>
		</g>
	</g>
	<radialGradient id="SVGID_2_" cx="149.9478" cy="314.491" r="13.6149" gradientUnits="userSpaceOnUse">
		<stop  offset="0" style="stop-color:#FFFFFF"/>
		<stop  offset="0.0188" style="stop-color:#FCFAF5"/>
		<stop  offset="0.122" style="stop-color:#EADFC0"/>
		<stop  offset="0.2233" style="stop-color:#DBC995"/>
		<stop  offset="0.3206" style="stop-color:#D0B873"/>
		<stop  offset="0.4127" style="stop-color:#C8AC5B"/>
		<stop  offset="0.4976" style="stop-color:#C3A54C"/>
		<stop  offset="0.5684" style="stop-color:#C1A247"/>
	</radialGradient>
	<polygon class="st4" points="137.75,293.23 166.86,293.23 152.31,318.44 	"/>
</g>
</svg>
